# xmcd CD database file
#
# Track frame offsets:
#	150
#	13509
#	28504
#	48009
#	63600
#	78977
#	95526
#	112281
#	124253
#	140293
#	159334
#	175877
#	193816
#
# Disc length: 2755 seconds
#
# Revision: 0
# Processed by: cddbd v1.5.2PL0 Copyright (c) Steve Scherf et al.
# Submitted via: CDex 1.51
#
DISCID=ab0ac10d
DTITLE=get up and dance workshop nr.62 - get up and dance workshop nr.62
DYEAR=2008
DGENRE=Country
TTITLE0=jungle walk
TTITLE1=save a home
TTITLE2=faster then angels fly
TTITLE3=hey hey maria
TTITLE4=snap crackle and pop
TTITLE5=ur tears r comin
TTITLE6=i never work on sunday
TTITLE7=daddy
TTITLE8=crazy foot mambo
TTITLE9=mr policeman
TTITLE10=i knew about
TTITLE11=my mamacita
TTITLE12=low key
EXTD=YEAR: 2008
EXTT0=
EXTT1=
EXTT2=
EXTT3=
EXTT4=
EXTT5=
EXTT6=
EXTT7=
EXTT8=
EXTT9=
EXTT10=
EXTT11=
EXTT12=
PLAYORDER=
